#!OML:ASF I:\Actors\actors\Patient Classification 2\Patient 1\Session 1\actor1.ASF
:FULLY-SPECIFIED
:DEGREES
228
root -0.48106 18.6757 5.23373 3.38757 -9.13513 -4.22165
lowerback 17.7351 -0.884249 2.41673
upperback 1.25964 -0.435658 2.90996
thorax -8.59616 -0.24657 1.8804
lowerneck 0.605448 -3.75154 2.5519
upperneck -1.53357 -4.9206 3.90028
head -0.526863 -2.5027 0.800241
rclavicle -4.16454e-014 3.69739e-014
rhumerus 10.636 18.6847 -29.2844
rradius 142.387
rwrist -75.5085
rhand 4.96794 -55.7531
rfingers 7.12502
rthumb 30.3394 -83.2784
lclavicle -4.16454e-014 3.69739e-014
lhumerus -45.3065 -3.07379 89.3945
lradius 51.0028
lwrist -0.272558
lhand -9.47285 -25.4545
lfingers 7.12502
lthumb 16.4912 3.86463
rfemur 0 0 0
rtibia 0
rfoot 0 0
rtoes 0
lfemur -10.8755 5.31771 -10.1225
ltibia 28.598
lfoot -21.5598 10.4622
ltoes -56.5185
229
root -0.473785 18.6761 5.23413 3.45005 -9.2078 -4.24528
lowerback 17.8573 -0.906335 2.53042
upperback 1.24261 -0.436982 2.89835
thorax -8.68365 -0.2519 1.80678
lowerneck 0.536329 -3.75669 2.65903
upperneck -1.7287 -4.92405 3.71773
head -0.58217 -2.50754 0.728862
rclavicle 4.27387e-015 7.95139e-016
rhumerus 10.7617 18.4396 -29.1259
rradius 142.311
rwrist -75.2495
rhand 5.24854 -55.6739
rfingers 7.12502
rthumb 30.607 -83.1496
lclavicle 4.27387e-015 7.95139e-016
lhumerus -45.2669 -3.11188 89.3921
lradius 51.0297
lwrist -0.165065
lhand -9.48078 -25.276
lfingers 7.12502
lthumb 16.4836 4.04378
rfemur 0 0 0
rtibia 0
rfoot 0 0
rtoes 0
lfemur -10.9338 5.40755 -10.1258
ltibia 28.6155
lfoot -21.5823 10.4421
ltoes -56.4807
230
root -0.466243 18.677 5.23544 3.50733 -9.25523 -4.22104
lowerback 17.9686 -0.934751 2.6034
upperback 1.22271 -0.456584 2.86765
thorax -8.7678 -0.264868 1.73996
lowerneck 0.411689 -3.75265 2.78997
upperneck -1.8828 -4.91948 3.54016
head -0.616244 -2.50712 0.653324
rclavicle -4.81059e-014 1.66979e-014
rhumerus 11.0012 18.1474 -28.9419
rradius 142.21
rwrist -75.1093
rhand 5.15461 -55.5704
rfingers 7.12502
rthumb 30.5174 -83.0627
lclavicle -4.81059e-014 1.66979e-014
lhumerus -45.1677 -3.1052 89.3514
lradius 50.9804
lwrist -0.0573764
lhand -9.529 -25.3494
lfingers 7.12502
lthumb 16.4372 3.97423
rfemur 0 0 0
rtibia 0
rfoot 0 0
rtoes 0
lfemur -10.9988 5.46559 -10.1851
ltibia 28.6377
lfoot -21.5944 10.4407
ltoes -56.4256
231
root -0.459039 18.6774 5.23778 3.51979 -9.27227 -4.13816
lowerback 18.036 -0.973088 2.59662
upperback 1.22448 -0.506717 2.8534
thorax -8.80283 -0.288925 1.74255
lowerneck 0.410765 -3.74148 2.7686
upperneck -2.13876 -4.89684 3.47604
head -0.69611 -2.5009 0.641286
rclavicle 7.35503e-015 -6.75868e-015
rhumerus 11.4078 17.8287 -28.6521
rradius 142.034
rwrist -74.9505
rhand 5.03948 -55.4076
rfingers 7.12502
rthumb 30.4076 -82.9202
lclavicle 7.35503e-015 -6.75868e-015
lhumerus -45.103 -3.0179 89.3468
lradius 50.9475
lwrist -0.0775444
lhand -9.57294 -25.5474
lfingers 7.12502
lthumb 16.3949 3.77974
rfemur 0 0 0
rtibia 0
rfoot 0 0
rtoes 0
lfemur -11.0319 5.51981 -10.3037
ltibia 28.6644
lfoot -21.574 10.4347
ltoes -56.4457
232
root -0.454093 18.6772 5.23986 3.52808 -9.28019 -4.08058
lowerback 18.0604 -1.01532 2.58524
upperback 1.24133 -0.564958 2.84619
thorax -8.7972 -0.316479 1.7561
lowerneck 0.469147 -3.73483 2.72943
upperneck -2.43799 -4.8761 3.44956
head -0.798231 -2.49716 0.645699
rclavicle -4.68138e-014 -1.66979e-014
rhumerus 11.7676 17.5029 -28.382
rradius 141.872
rwrist -74.8005
rhand 4.98879 -55.2054
rfingers 7.12502
rthumb 30.3593 -82.727
lclavicle -4.68138e-014 -1.66979e-014
lhumerus -45.0667 -2.89114 89.3163
lradius 50.9491
lwrist -0.195989
lhand -9.66758 -25.6282
lfingers 7.12502
lthumb 16.3037 3.70646
rfemur 0 0 0
rtibia 0
rfoot 0 0
rtoes 0
lfemur -11.0637 5.61019 -10.3827
ltibia 28.6955
lfoot -21.5465 10.3881
ltoes -56.5007
233
root -0.44948 18.6772 5.24293 3.5679 -9.30221 -4.06012
lowerback 18.0996 -1.06087 2.62814
upperback 1.2307 -0.61629 2.82176
thorax -8.8308 -0.343269 1.71946
lowerneck 0.423117 -3.7311 2.74389
upperneck -2.61233 -4.86798 3.4057
head -0.846027 -2.49626 0.631773
rclavicle 2.06736e-014 -1.90833e-014
rhumerus 11.9778 17.1806 -28.197
rradius 141.819
rwrist -74.7072
rhand 5.10961 -55.105
rfingers 7.12502
rthumb 30.4745 -82.6052
lclavicle 2.06736e-014 -1.90833e-014
lhumerus -45.0329 -2.81721 89.2334
lradius 50.9802
lwrist -0.229784
lhand -9.70288 -25.6865
lfingers 7.12502
lthumb 16.2698 3.65091
rfemur 0 0 0
rtibia 0
rfoot 0 0
rtoes 0
lfemur -11.1188 5.65976 -10.4271
ltibia 28.7319
lfoot -21.5565 10.3683
ltoes -56.5674
234
root -0.443509 18.6772 5.24868 3.62703 -9.34773 -4.10055
lowerback 18.1716 -1.10057 2.7884
upperback 1.20162 -0.633551 2.79838
thorax -8.9047 -0.358505 1.61001
lowerneck 0.291755 -3.73791 2.70866
upperneck -2.73768 -4.87856 3.42774
head -0.861474 -2.50309 0.643309
rclavicle 1.72943e-014 9.14409e-015
rhumerus 12.1306 16.8801 -28.0182
rradius 141.811
rwrist -74.5918
rhand 5.08691 -55.0689
rfingers 7.12502
rthumb 30.4529 -82.5732
lclavicle 1.72943e-014 9.14409e-015
lhumerus -45.0034 -2.85825 89.1865
lradius 51.0273
lwrist -0.154996
lhand -9.75447 -25.7895
lfingers 7.12502
lthumb 16.2201 3.55195
rfemur 0 0 0
rtibia 0
rfoot 0 0
rtoes 0
lfemur -11.1696 5.66831 -10.4135
ltibia 28.7724
lfoot -21.6018 10.3824
ltoes -56.58
235
root -0.438808 18.6765 5.25493 3.67343 -9.38856 -4.19109
lowerback 18.2669 -1.12342 2.99133
upperback 1.18139 -0.616279 2.80203
thorax -8.9823 -0.358535 1.49729
lowerneck 0.178949 -3.73029 2.61894
upperneck -2.93841 -4.86528 3.52781
head -0.900455 -2.50006 0.689002
rclavicle 1.2921e-015 -3.26007e-014
rhumerus 12.2561 16.5723 -27.7965
rradius 141.782
rwrist -74.4965
rhand 4.80125 -54.8867
rfingers 7.12502
rthumb 30.1804 -82.4412
lclavicle 1.2921e-015 -3.26007e-014
lhumerus -44.9965 -2.92653 89.1894
lradius 51.1013
lwrist -0.146314
lhand -9.71587 -25.7471
lfingers 7.12502
lthumb 16.2572 3.59136
rfemur 0 0 0
rtibia 0
rfoot 0 0
rtoes 0
lfemur -11.1957 5.70532 -10.3349
ltibia 28.8119
lfoot -21.6595 10.3612
ltoes -56.491
236
root -0.436258 18.6761 5.26101 3.71025 -9.39899 -4.23194
lowerback 18.3935 -1.14342 3.09349
upperback 1.12869 -0.611534 2.81436
thorax -9.11176 -0.360667 1.45605
lowerneck 0.101001 -3.71463 2.58319
upperneck -3.14081 -4.84054 3.55517
head -0.948995 -2.49137 0.704601
rclavicle 1.69961e-014 -4.65156e-014
rhumerus 12.386 16.2654 -27.5555
rradius 141.739
rwrist -74.4696
rhand 4.53912 -54.6584
rfingers 7.12502
rthumb 29.9303 -82.2583
lclavicle 1.69961e-014 -4.65156e-014
lhumerus -45.0632 -2.98437 89.2006
lradius 51.1984
lwrist -0.163547
lhand -9.53562 -25.6329
lfingers 7.12502
lthumb 16.4308 3.69125
rfemur 0 0 0
rtibia 0
rfoot 0 0
rtoes 0
lfemur -11.2234 5.76786 -10.3013
ltibia 28.8452
lfoot -21.6957 10.3118
ltoes -56.4272
